<?xml version="1.0" encoding="iso-8859-1"?>
<!-- Uploaded to: SVG Repo, www.svgrepo.com, Generator: SVG Repo Mixer Tools -->
<svg height="800px" width="800px" version="1.1" id="Layer_1" xmlns="http://www.w3.org/2000/svg" xmlns:xlink="http://www.w3.org/1999/xlink" 
	 viewBox="0 0 512 512" xml:space="preserve">
<polygon style="fill:#FBBA00;" points="119.069,448.441 24.687,512 342.64,512 487.313,414.573 392.932,414.573 "/>
<polygon style="fill:#F28E00;" points="392.932,351.014 119.069,384.881 24.687,448.441 342.64,448.441 487.313,351.014 "/>
<g>
	<polygon style="fill:#FBBA00;" points="392.932,287.455 119.069,321.322 24.687,384.881 342.64,384.881 487.313,287.455 	"/>
	<polygon style="fill:#FBBA00;" points="450.649,256.587 342.64,128.294 450.649,0 132.696,0 24.687,128.294 132.696,256.587 
		24.687,384.881 342.64,384.881 424.662,287.455 	"/>
</g>
<g>
	<polygon style="fill:#FBDB80;" points="132.696,256.587 132.696,256.587 24.687,384.881 342.64,384.881 424.662,287.455 
		450.649,256.587 450.649,256.587 	"/>
	<polygon style="fill:#FBDB80;" points="342.64,128.294 450.649,0 132.696,0 24.687,128.294 24.687,128.294 	"/>
</g>
</svg>